<svg width="110" height="110" viewBox="0 0 110 110" fill="none" xmlns="http://www.w3.org/2000/svg">
<rect opacity="0.8" width="110" height="110" rx="24" fill="url(#paint0_linear_136_1490)"/>
<path d="M8.09115 66.1015C8.33531 66.6177 8.73157 67.0751 9.27217 67.093L9.2753 67.0936L9.30548 67.0936C11.2777 67.0936 12.6804 65.5646 13.7557 63.5632C14.835 61.5544 15.6528 58.9432 16.4083 56.531L16.4169 56.5036L16.417 56.5035C17.1848 54.0494 17.82 52.1067 18.5127 50.776C19.211 49.4346 19.9031 48.8385 20.7354 48.8385C21.5683 48.8385 22.2605 49.4346 22.9589 50.776C23.6517 52.1067 24.2869 54.0494 25.0548 56.5035L25.0548 56.5036L25.063 56.5297C25.8186 58.9425 26.6366 61.5542 27.7159 63.5634C28.7911 65.5647 30.1936 67.0936 32.1654 67.0936C34.1365 67.0936 35.5384 65.5644 36.6128 63.5631C37.692 61.553 38.5095 58.9399 39.2645 56.5265L39.2717 56.5035C40.0396 54.0494 40.6745 52.1067 41.3668 50.7759C42.0648 49.4344 42.7562 48.8385 43.5875 48.8385C44.4189 48.8385 45.1105 49.4344 45.8086 50.7759C46.5011 52.1067 47.1363 54.0494 47.9042 56.5035L47.9088 56.5182C48.6646 58.9343 49.4832 61.551 50.5641 63.5634C51.6392 65.5647 53.0418 67.0936 55.0132 67.0936C56.9843 67.0936 58.3862 65.5644 59.4606 63.5631C60.5398 61.553 61.3573 58.9399 62.1124 56.5265L62.1195 56.5035L62.1196 56.5034C62.887 54.0494 63.5219 52.1067 64.2141 50.7759C64.912 49.4343 65.6032 48.8385 66.4335 48.8385C67.2644 48.8385 67.9554 49.4342 68.6529 50.7758C69.3448 52.1066 69.9794 54.0493 70.7468 56.5034L70.7525 56.5215C71.5075 58.9366 72.3252 61.5519 73.405 63.5633C74.4793 65.5646 75.8812 67.0936 77.8523 67.0936C79.8234 67.0936 81.2251 65.5644 82.2993 63.5631C83.3777 61.554 84.1947 58.9425 84.9494 56.5301L84.9577 56.5035L84.9578 56.5035C85.7252 54.0494 86.3601 52.1067 87.0523 50.7759C87.7502 49.4343 88.4414 48.8385 89.2717 48.8385C90.1026 48.8385 90.7937 49.4343 91.4915 50.7759C92.1835 52.1066 92.8182 54.0493 93.5857 56.5035L93.5858 56.5036L93.5963 56.5371C94.3517 58.9478 95.1691 61.5563 96.247 63.5633C97.3218 65.5646 98.7237 67.0936 100.695 67.0936C101.252 67.0936 101.66 66.6283 101.909 66.1018C102.17 65.5509 102.322 64.8122 102.322 64.0134C102.322 63.2147 102.17 62.476 101.909 61.9251C101.66 61.3986 101.252 60.9333 100.695 60.9333C99.8639 60.9333 99.1727 60.3375 98.475 58.9959C97.7829 57.6651 97.1482 55.7224 96.3808 53.2683L96.3808 53.2683L96.375 53.2499C95.6195 50.8349 94.8015 48.2197 93.7215 46.2084C92.6469 44.2072 91.2451 42.6781 89.2744 42.6781C87.3033 42.6781 85.9014 44.2073 84.827 46.2091C83.747 48.2212 82.9291 50.8376 82.1736 53.2544L82.1681 53.272C81.4006 55.7252 80.7661 57.6674 80.0742 58.998C79.3767 60.3393 78.6857 60.9351 77.8548 60.9351C77.0238 60.9351 76.3328 60.3394 75.6353 58.9978C74.9434 57.667 74.3089 55.7243 73.5415 53.2702L73.5414 53.2701L73.5335 53.2446C72.7786 50.8316 71.9615 48.2197 70.883 46.2103C69.8087 44.2091 68.4071 42.68 66.436 42.68C64.4649 42.68 63.063 44.2092 61.9886 46.2105C60.9094 48.2206 60.0919 50.8337 59.3369 53.2471L59.3297 53.2701L59.3296 53.2702C58.5622 55.7242 57.9273 57.667 57.2351 58.9977C56.5372 60.3394 55.846 60.9351 55.0157 60.9351C54.1843 60.9351 53.4927 60.3392 52.7945 58.9977C52.102 57.667 51.4669 55.7242 50.699 53.2701L50.6944 53.2554C49.9386 50.8393 49.12 48.2226 48.039 46.2103C46.964 44.2089 45.5614 42.68 43.59 42.68C41.6186 42.68 40.2165 44.2092 39.1417 46.211C38.062 48.2221 37.2441 50.8371 36.4884 53.253L36.4819 53.2739C35.714 55.727 35.079 57.6693 34.3869 58.9998C33.6891 60.3413 32.9982 60.937 32.1678 60.937C31.336 60.937 30.6442 60.341 29.9458 58.9995C29.2531 57.6688 28.6177 55.7261 27.8494 53.272L27.8411 53.2456C27.0855 50.8329 26.2676 48.2212 25.1881 46.2121C24.1128 44.2108 22.7101 42.6819 20.7379 42.6819C18.7665 42.6819 17.364 44.211 16.2887 46.2123C15.2086 48.2226 14.3902 50.8361 13.6343 53.2497L13.6274 53.2718C12.8581 55.723 12.2224 57.6643 11.5292 58.9944C10.8304 60.3351 10.1382 60.9313 9.30525 60.9313C8.74773 60.9313 8.34028 61.3967 8.09116 61.9232C7.83044 62.4741 7.67809 63.2128 7.67809 64.0115C7.67809 64.8112 7.83043 65.5503 8.09115 66.1015Z" fill="white" stroke="white" stroke-width="0.643836"/>
<defs>
<linearGradient id="paint0_linear_136_1490" x1="55" y1="0" x2="55" y2="110" gradientUnits="userSpaceOnUse">
<stop stop-color="#7758F6"/>
<stop offset="1" stop-color="#93FFC5"/>
</linearGradient>
</defs>
</svg>
